<?xml version="1.0" encoding="UTF-8"?>
<!DOCTYPE svg PUBLIC "-//W3C//DTD SVG 1.1//EN" "http://www.w3.org/Graphics/SVG/1.1/DTD/svg11.dtd">
<svg xmlns="http://www.w3.org/2000/svg" version="1.1" width="375px" height="296px" style="shape-rendering:geometricPrecision; text-rendering:geometricPrecision; image-rendering:optimizeQuality; fill-rule:evenodd; clip-rule:evenodd" xmlns:xlink="http://www.w3.org/1999/xlink">
<g><path style="opacity:1" fill="#262422" d="M -0.5,-0.5 C 124.5,-0.5 249.5,-0.5 374.5,-0.5C 374.5,98.1667 374.5,196.833 374.5,295.5C 249.5,295.5 124.5,295.5 -0.5,295.5C -0.5,196.833 -0.5,98.1667 -0.5,-0.5 Z"/></g>
<g><path style="opacity:1" fill="#32230f" d="M 166.5,83.5 C 165.428,85.8823 164.262,88.2156 163,90.5C 159.35,88.9538 155.516,88.2871 151.5,88.5C 155.298,87.5166 159.298,87.1832 163.5,87.5C 163.215,85.712 163.548,84.0453 164.5,82.5C 165.183,82.8627 165.85,83.1961 166.5,83.5 Z"/></g>
<g><path style="opacity:1" fill="#342513" d="M 215.5,96.5 C 212.165,95.0002 208.665,94.0002 205,93.5C 203.439,93.6032 201.939,93.9366 200.5,94.5C 200.136,99.3008 199.636,104.301 199,109.5C 198.617,110.056 198.117,110.389 197.5,110.5C 198.397,105.86 198.564,101.194 198,96.5C 197.25,97.1258 196.416,97.6258 195.5,98C 194.996,103.695 193.663,109.195 191.5,114.5C 188.494,108.257 189.161,102.257 193.5,96.5C 195.332,95.7515 196.999,94.7515 198.5,93.5C 202.078,92.4113 205.745,92.2446 209.5,93C 212.025,93.4238 214.025,94.5905 215.5,96.5 Z"/></g>
<g><path style="opacity:1" fill="#272423" d="M 215.5,96.5 C 216.5,96.8333 217.167,97.5 217.5,98.5C 218.043,101.218 218.709,103.885 219.5,106.5C 217.053,106.615 215.053,107.615 213.5,109.5C 211.616,109.712 210.283,110.712 209.5,112.5C 210.167,115.167 210.833,117.833 211.5,120.5C 210.098,122.146 208.264,123.146 206,123.5C 203.063,121.94 199.896,120.94 196.5,120.5C 195.287,120.253 194.62,119.586 194.5,118.5C 195.501,115.828 196.501,113.162 197.5,110.5C 198.117,110.389 198.617,110.056 199,109.5C 199.636,104.301 200.136,99.3008 200.5,94.5C 201.939,93.9366 203.439,93.6032 205,93.5C 208.665,94.0002 212.165,95.0002 215.5,96.5 Z"/></g>
<g><path style="opacity:1" fill="#282421" d="M 162.5,94.5 C 162.5,95.1667 162.5,95.8333 162.5,96.5C 162.5,99.8333 162.5,103.167 162.5,106.5C 162.682,108.591 162.348,110.591 161.5,112.5C 163.382,114.93 164.715,117.597 165.5,120.5C 163.067,120.273 161.401,121.273 160.5,123.5C 160.167,123.5 159.833,123.5 159.5,123.5C 155.78,123.704 152.447,122.704 149.5,120.5C 150.167,117.833 150.833,115.167 151.5,112.5C 150.226,110.549 148.56,109.215 146.5,108.5C 146.586,107.504 146.252,106.671 145.5,106C 144.062,105.781 142.729,105.281 141.5,104.5C 143.086,102.827 143.753,100.827 143.5,98.5C 147.779,92.9098 153.445,91.0765 160.5,93C 161.416,93.2784 162.082,93.7784 162.5,94.5 Z"/></g>
<g><path style="opacity:1" fill="#33261c" d="M 136.5,104.5 C 136.5,104.833 136.5,105.167 136.5,105.5C 134.143,105.337 131.81,105.503 129.5,106C 125.367,109.131 121.534,112.631 118,116.5C 116.64,113.977 114.807,111.977 112.5,110.5C 115.167,110.833 117.833,111.167 120.5,111.5C 120.439,109.408 119.439,107.908 117.5,107C 119.68,106.581 121.846,106.748 124,107.5C 125.662,107.612 126.829,106.946 127.5,105.5C 130.428,104.516 133.428,104.183 136.5,104.5 Z"/></g>
<g><path style="opacity:1" fill="#d5b661" d="M 140.5,96.5 C 141.833,96.5 142.5,97.1667 142.5,98.5C 140.653,101.2 139.653,104.2 139.5,107.5C 140.269,111.608 141.103,115.608 142,119.5C 140.853,120.458 139.853,120.125 139,118.5C 137.451,115.688 136.618,112.688 136.5,109.5C 136.5,108.167 136.5,106.833 136.5,105.5C 136.5,105.167 136.5,104.833 136.5,104.5C 137.304,101.558 138.638,98.8911 140.5,96.5 Z"/></g>
<g><path style="opacity:1" fill="#342616" d="M 217.5,98.5 C 221.165,102.039 222.332,106.372 221,111.5C 220.305,113.722 219.472,115.889 218.5,118C 218.639,119.301 219.305,120.134 220.5,120.5C 220.369,121.376 220.702,122.043 221.5,122.5C 223.51,120.829 225.843,120.162 228.5,120.5C 224.71,124.433 220.876,124.433 217,120.5C 214.547,116.216 215.213,112.549 219,109.5C 219.483,108.552 219.649,107.552 219.5,106.5C 218.709,103.885 218.043,101.218 217.5,98.5 Z"/></g>
<g><path style="opacity:1" fill="#bb873f" d="M 226.5,105.5 C 228.396,106.481 230.396,107.481 232.5,108.5C 233.745,109.955 233.578,111.289 232,112.5C 230.561,110.552 228.728,109.219 226.5,108.5C 225.584,108.543 224.917,108.876 224.5,109.5C 224.345,113.636 223.011,117.302 220.5,120.5C 219.305,120.134 218.639,119.301 218.5,118C 219.472,115.889 220.305,113.722 221,111.5C 222.332,106.372 221.165,102.039 217.5,98.5C 217.167,97.5 216.5,96.8333 215.5,96.5C 214.025,94.5905 212.025,93.4238 209.5,93C 205.745,92.2446 202.078,92.4113 198.5,93.5C 197.4,92.3951 196.733,91.0618 196.5,89.5C 211.031,86.7614 221.031,92.0947 226.5,105.5 Z"/></g>
<g><path style="opacity:1" fill="#342619" d="M 142.5,98.5 C 142.833,98.5 143.167,98.5 143.5,98.5C 143.753,100.827 143.086,102.827 141.5,104.5C 142.729,105.281 144.062,105.781 145.5,106C 146.252,106.671 146.586,107.504 146.5,108.5C 145.18,107.058 143.514,106.392 141.5,106.5C 141.569,109.084 142.735,111.084 145,112.5C 146.167,120.667 142.667,124.167 134.5,123C 133.29,121.961 132.29,120.794 131.5,119.5C 133.044,119.703 134.378,120.37 135.5,121.5C 136.732,120.855 138.065,120.689 139.5,121C 138.095,119.731 136.429,119.231 134.5,119.5C 134.59,117.304 134.923,115.137 135.5,113C 135.316,111.624 134.649,110.791 133.5,110.5C 134.209,109.596 135.209,109.263 136.5,109.5C 136.618,112.688 137.451,115.688 139,118.5C 139.853,120.125 140.853,120.458 142,119.5C 141.103,115.608 140.269,111.608 139.5,107.5C 139.653,104.2 140.653,101.2 142.5,98.5 Z"/></g>
<g><path style="opacity:1" fill="#3a2a15" d="M 146.5,108.5 C 148.56,109.215 150.226,110.549 151.5,112.5C 150.833,115.167 150.167,117.833 149.5,120.5C 152.447,122.704 155.78,123.704 159.5,123.5C 159.5,123.833 159.5,124.167 159.5,124.5C 155.295,124.809 151.295,124.143 147.5,122.5C 149.14,117.641 148.807,112.974 146.5,108.5 Z"/></g>
<g><path style="opacity:1" fill="#372514" d="M 213.5,109.5 C 212.613,113.898 212.279,118.231 212.5,122.5C 207.995,124.812 203.329,125.145 198.5,123.5C 196.689,121.017 194.855,121.017 193,123.5C 193.043,128.287 191.877,132.621 189.5,136.5C 190.167,133.5 190.833,130.5 191.5,127.5C 190.167,127.5 188.833,127.5 187.5,127.5C 189.603,124.28 191.936,121.28 194.5,118.5C 194.62,119.586 195.287,120.253 196.5,120.5C 199.896,120.94 203.063,121.94 206,123.5C 208.264,123.146 210.098,122.146 211.5,120.5C 210.833,117.833 210.167,115.167 209.5,112.5C 210.283,110.712 211.616,109.712 213.5,109.5 Z"/></g>
<g><path style="opacity:1" fill="#aa773f" d="M 226.5,105.5 C 229.425,105.46 232.091,106.293 234.5,108C 237.333,110.833 240.167,113.667 243,116.5C 246.215,109.027 251.048,107.693 257.5,112.5C 260.384,117.093 260.05,121.426 256.5,125.5C 250.436,127.764 245.436,126.431 241.5,121.5C 239.597,118.252 237.263,115.252 234.5,112.5C 233.904,116.332 232.904,119.999 231.5,123.5C 226.438,127.06 221.104,127.393 215.5,124.5C 212.785,126.264 209.785,127.264 206.5,127.5C 206.918,126.778 207.584,126.278 208.5,126C 204.689,126.083 201.355,125.25 198.5,123.5C 203.329,125.145 207.995,124.812 212.5,122.5C 212.279,118.231 212.613,113.898 213.5,109.5C 215.053,107.615 217.053,106.615 219.5,106.5C 219.649,107.552 219.483,108.552 219,109.5C 215.213,112.549 214.547,116.216 217,120.5C 220.876,124.433 224.71,124.433 228.5,120.5C 229.117,120.389 229.617,120.056 230,119.5C 231.929,113.893 230.095,110.56 224.5,109.5C 224.917,108.876 225.584,108.543 226.5,108.5C 228.728,109.219 230.561,110.552 232,112.5C 233.578,111.289 233.745,109.955 232.5,108.5C 230.396,107.481 228.396,106.481 226.5,105.5 Z"/></g>
<g><path style="opacity:1" fill="#2a2521" d="M 224.5,109.5 C 230.095,110.56 231.929,113.893 230,119.5C 229.617,120.056 229.117,120.389 228.5,120.5C 225.843,120.162 223.51,120.829 221.5,122.5C 220.702,122.043 220.369,121.376 220.5,120.5C 223.011,117.302 224.345,113.636 224.5,109.5 Z"/></g>
<g><path style="opacity:1" fill="#3b2614" d="M 248.5,113.5 C 253.083,112.343 255.75,114.01 256.5,118.5C 254.674,123.699 251.507,124.699 247,121.5C 246.109,118.502 246.609,115.836 248.5,113.5 Z"/></g>
<g><path style="opacity:1" fill="#252424" d="M 249.5,114.5 C 250.833,114.5 252.167,114.5 253.5,114.5C 253.5,116.833 253.5,119.167 253.5,121.5C 247.35,121.889 246.016,119.556 249.5,114.5 Z"/></g>
<g><path style="opacity:1" fill="#3b2a17" d="M 241.5,121.5 C 239.852,120.19 238.186,118.857 236.5,117.5C 234.931,118.714 234.098,120.381 234,122.5C 233.329,123.252 232.496,123.586 231.5,123.5C 232.904,119.999 233.904,116.332 234.5,112.5C 237.263,115.252 239.597,118.252 241.5,121.5 Z"/></g>
<g><path style="opacity:1" fill="#322916" d="M 98.5,124.5 C 89.7417,123.847 80.9084,123.513 72,123.5C 63.1394,123.502 54.6394,124.169 46.5,125.5C 43.9476,123.837 44.1143,122.17 47,120.5C 47.5,121 48,121.5 48.5,122C 65.5301,121.845 82.1968,122.678 98.5,124.5 Z"/></g>
<g><path style="opacity:1" fill="#9e744d" d="M 98.5,124.5 C 81.6749,125.497 64.6749,125.83 47.5,125.5C 47.1667,125.5 46.8333,125.5 46.5,125.5C 54.6394,124.169 63.1394,123.502 72,123.5C 80.9084,123.513 89.7417,123.847 98.5,124.5 Z"/></g>
<g><path style="opacity:1" fill="#a9763e" d="M 136.5,105.5 C 136.5,106.833 136.5,108.167 136.5,109.5C 135.209,109.263 134.209,109.596 133.5,110.5C 132.542,110.953 131.708,111.619 131,112.5C 130.204,115.039 130.371,117.372 131.5,119.5C 132.29,120.794 133.29,121.961 134.5,123C 142.667,124.167 146.167,120.667 145,112.5C 142.735,111.084 141.569,109.084 141.5,106.5C 143.514,106.392 145.18,107.058 146.5,108.5C 148.807,112.974 149.14,117.641 147.5,122.5C 146.5,122.833 145.833,123.5 145.5,124.5C 138.247,128.15 132.247,126.817 127.5,120.5C 127.664,117.813 127.497,115.146 127,112.5C 123.581,115.412 120.748,118.746 118.5,122.5C 117.167,123.5 115.833,124.5 114.5,125.5C 104.892,128.06 100.725,124.393 102,114.5C 104.239,111.038 107.406,109.705 111.5,110.5C 111.833,110.5 112.167,110.5 112.5,110.5C 114.807,111.977 116.64,113.977 118,116.5C 121.534,112.631 125.367,109.131 129.5,106C 131.81,105.503 134.143,105.337 136.5,105.5 Z"/></g>
<g><path style="opacity:1" fill="#222529" d="M 133.5,110.5 C 134.649,110.791 135.316,111.624 135.5,113C 134.923,115.137 134.59,117.304 134.5,119.5C 136.429,119.231 138.095,119.731 139.5,121C 138.065,120.689 136.732,120.855 135.5,121.5C 134.378,120.37 133.044,119.703 131.5,119.5C 131.756,116.402 132.422,113.402 133.5,110.5 Z"/></g>
<g><path style="opacity:1" fill="#322417" d="M 106.5,113.5 C 114.284,112.926 116.284,115.926 112.5,122.5C 105.035,123.351 103.035,120.351 106.5,113.5 Z"/></g>
<g><path style="opacity:1" fill="#402510" d="M 133.5,110.5 C 132.422,113.402 131.756,116.402 131.5,119.5C 130.371,117.372 130.204,115.039 131,112.5C 131.708,111.619 132.542,110.953 133.5,110.5 Z"/></g>
<g><path style="opacity:1" fill="#352915" d="M 127.5,120.5 C 126.288,119.77 125.288,118.77 124.5,117.5C 122.69,119.531 120.69,121.198 118.5,122.5C 120.748,118.746 123.581,115.412 127,112.5C 127.497,115.146 127.664,117.813 127.5,120.5 Z"/></g>
<g><path style="opacity:1" fill="#9e744d" d="M 263.5,125.5 C 262.833,125.5 262.5,125.167 262.5,124.5C 279.769,123.182 297.103,123.182 314.5,124.5C 297.513,125.499 280.513,125.833 263.5,125.5 Z"/></g>
<g><path style="opacity:1" fill="#cfb163" d="M 147.5,122.5 C 151.295,124.143 155.295,124.809 159.5,124.5C 157.369,125.314 155.036,125.814 152.5,126C 153.416,126.278 154.082,126.778 154.5,127.5C 151.084,127.472 148.084,126.472 145.5,124.5C 145.833,123.5 146.5,122.833 147.5,122.5 Z"/></g>
<g><path style="opacity:1" fill="#c7994b" d="M 196.5,89.5 C 196.733,91.0618 197.4,92.3951 198.5,93.5C 196.999,94.7515 195.332,95.7515 193.5,96.5C 193.5,95.1667 192.833,94.5 191.5,94.5C 192.391,93.7387 193.058,92.7387 193.5,91.5C 191.127,84.0886 186.794,78.0886 180.5,73.5C 174.206,78.0886 169.873,84.0886 167.5,91.5C 170.184,94.8699 172.518,98.5366 174.5,102.5C 174.654,108.647 174.154,114.647 173,120.5C 174.739,123.907 177.406,126.24 181,127.5C 182.03,127.164 182.53,126.497 182.5,125.5C 184.923,124.05 186.923,122.05 188.5,119.5C 189.64,117.955 190.64,116.288 191.5,114.5C 193.663,109.195 194.996,103.695 195.5,98C 196.416,97.6258 197.25,97.1258 198,96.5C 198.564,101.194 198.397,105.86 197.5,110.5C 196.501,113.162 195.501,115.828 194.5,118.5C 191.936,121.28 189.603,124.28 187.5,127.5C 185.186,129.477 182.853,131.477 180.5,133.5C 178.147,131.477 175.814,129.477 173.5,127.5C 167.96,121.417 164.293,114.417 162.5,106.5C 162.5,103.167 162.5,99.8333 162.5,96.5C 163.15,96.8039 163.817,97.1373 164.5,97.5C 165.103,102.181 166.436,106.514 168.5,110.5C 168.5,110.833 168.5,111.167 168.5,111.5C 169.193,115.762 170.026,116.095 171,112.5C 171.808,108.973 171.641,105.64 170.5,102.5C 169.5,98.1667 166.833,95.5 162.5,94.5C 162.082,93.7784 161.416,93.2784 160.5,93C 153.445,91.0765 147.779,92.9098 143.5,98.5C 143.167,98.5 142.833,98.5 142.5,98.5C 142.5,97.1667 141.833,96.5 140.5,96.5C 143.445,92.7559 147.111,90.0892 151.5,88.5C 155.516,88.2871 159.35,88.9538 163,90.5C 164.262,88.2156 165.428,85.8823 166.5,83.5C 169.732,77.264 174.399,72.264 180.5,68.5C 186.911,72.4107 191.744,77.744 195,84.5C 196.009,86.0249 196.509,87.6916 196.5,89.5 Z"/></g>
<g><path style="opacity:1" fill="#3f3018" d="M 174.5,102.5 C 175.435,108.351 175.602,114.351 175,120.5C 176.529,121.729 177.696,123.229 178.5,125C 179.793,125.49 181.127,125.657 182.5,125.5C 182.53,126.497 182.03,127.164 181,127.5C 177.406,126.24 174.739,123.907 173,120.5C 174.154,114.647 174.654,108.647 174.5,102.5 Z"/></g>
<g><path style="opacity:1" fill="#ba803e" d="M 191.5,94.5 C 192.833,94.5 193.5,95.1667 193.5,96.5C 189.161,102.257 188.494,108.257 191.5,114.5C 190.64,116.288 189.64,117.955 188.5,119.5C 186.602,113.659 186.102,107.659 187,101.5C 187.938,98.7435 189.438,96.4101 191.5,94.5 Z"/></g>
<g><path style="opacity:1" fill="#242627" d="M 170.5,102.5 C 171.055,106.012 170.388,109.012 168.5,111.5C 168.5,111.167 168.5,110.833 168.5,110.5C 168.173,108.512 167.84,106.512 167.5,104.5C 167.547,101.761 168.547,101.095 170.5,102.5 Z"/></g>
<g><path style="opacity:1" fill="#38220b" d="M 170.5,102.5 C 171.641,105.64 171.808,108.973 171,112.5C 170.026,116.095 169.193,115.762 168.5,111.5C 170.388,109.012 171.055,106.012 170.5,102.5 Z"/></g>
<g><path style="opacity:1" fill="#3c2c12" d="M 162.5,94.5 C 166.833,95.5 169.5,98.1667 170.5,102.5C 168.547,101.095 167.547,101.761 167.5,104.5C 167.84,106.512 168.173,108.512 168.5,110.5C 166.436,106.514 165.103,102.181 164.5,97.5C 163.817,97.1373 163.15,96.8039 162.5,96.5C 162.5,95.8333 162.5,95.1667 162.5,94.5 Z"/></g>
<g><path style="opacity:1" fill="#292520" d="M 191.5,94.5 C 189.438,96.4101 187.938,98.7435 187,101.5C 186.102,107.659 186.602,113.659 188.5,119.5C 186.923,122.05 184.923,124.05 182.5,125.5C 181.127,125.657 179.793,125.49 178.5,125C 177.696,123.229 176.529,121.729 175,120.5C 175.602,114.351 175.435,108.351 174.5,102.5C 172.518,98.5366 170.184,94.8699 167.5,91.5C 169.873,84.0886 174.206,78.0886 180.5,73.5C 186.794,78.0886 191.127,84.0886 193.5,91.5C 193.058,92.7387 192.391,93.7387 191.5,94.5 Z"/></g>
<g><path style="opacity:1" fill="#312319" d="M 111.5,110.5 C 107.406,109.705 104.239,111.038 102,114.5C 100.725,124.393 104.892,128.06 114.5,125.5C 113.384,127.508 111.551,128.508 109,128.5C 88.8535,127.696 68.6868,127.196 48.5,127C 47.944,126.617 47.6107,126.117 47.5,125.5C 64.6749,125.83 81.6749,125.497 98.5,124.5C 99.3909,123.739 100.058,122.739 100.5,121.5C 99.6479,117.869 98.9812,114.202 98.5,110.5C 103.006,109.689 107.34,109.689 111.5,110.5 Z"/></g>
<g><path style="opacity:1" fill="#d59f46" d="M 170.5,136.5 C 171.984,140.132 173.984,143.466 176.5,146.5C 177.248,148.332 178.248,149.999 179.5,151.5C 176.325,151.16 174.159,149.493 173,146.5C 173.782,152.811 173.616,159.144 172.5,165.5C 172.808,167.924 172.474,170.257 171.5,172.5C 170.817,172.137 170.15,171.804 169.5,171.5C 170.433,166.334 171.433,161.168 172.5,156C 171.202,151.914 169.535,148.081 167.5,144.5C 165.952,140.402 164.119,136.402 162,132.5C 160.143,129.8 157.643,128.134 154.5,127.5C 154.082,126.778 153.416,126.278 152.5,126C 155.036,125.814 157.369,125.314 159.5,124.5C 162.106,123.864 164.606,123.864 167,124.5C 166.747,127.133 166.747,129.8 167,132.5C 167.74,134.319 168.907,135.652 170.5,136.5 Z"/></g>
<g><path style="opacity:1" fill="#2e2518" d="M 263.5,125.5 C 280.513,125.833 297.513,125.499 314.5,124.5C 297.103,123.182 279.769,123.182 262.5,124.5C 280.191,122.627 298.191,121.793 316.5,122C 317.567,124.098 318.067,126.265 318,128.5C 299.34,127.804 280.507,127.304 261.5,127C 262.416,126.722 263.082,126.222 263.5,125.5 Z"/></g>
<g><path style="opacity:1" fill="#cc8633" d="M 198.5,123.5 C 201.355,125.25 204.689,126.083 208.5,126C 207.584,126.278 206.918,126.778 206.5,127.5C 201.889,129.112 198.556,132.112 196.5,136.5C 195.21,137.058 194.377,138.058 194,139.5C 192,137.5 192,135.5 194,133.5C 194.498,130.183 194.665,126.85 194.5,123.5C 195.833,123.5 197.167,123.5 198.5,123.5 Z"/></g>
<g><path style="opacity:1" fill="#bf954e" d="M 170.5,136.5 C 168.907,135.652 167.74,134.319 167,132.5C 166.747,129.8 166.747,127.133 167,124.5C 164.606,123.864 162.106,123.864 159.5,124.5C 159.5,124.167 159.5,123.833 159.5,123.5C 159.833,123.5 160.167,123.5 160.5,123.5C 162.258,123.123 163.925,122.456 165.5,121.5C 166.478,121.977 167.311,122.643 168,123.5C 168.265,127.968 169.099,132.302 170.5,136.5 Z"/></g>
<g><path style="opacity:1" fill="#332a17" d="M 93.5,136.5 C 81.8172,135.85 77.4839,141.183 80.5,152.5C 78.1163,151.575 77.1163,149.742 77.5,147C 77.4237,142.653 79.0904,139.153 82.5,136.5C 82.2907,135.914 81.9574,135.414 81.5,135C 85.1667,134.333 88.8333,134.333 92.5,135C 93.056,135.383 93.3893,135.883 93.5,136.5 Z"/></g>
<g><path style="opacity:1" fill="#322615" d="M 162.5,106.5 C 164.293,114.417 167.96,121.417 173.5,127.5C 172.503,127.47 171.836,127.97 171.5,129C 173.534,131.099 173.868,133.432 172.5,136C 172.611,137.722 173.111,137.888 174,136.5C 174.307,140.047 175.14,143.38 176.5,146.5C 173.984,143.466 171.984,140.132 170.5,136.5C 169.099,132.302 168.265,127.968 168,123.5C 167.311,122.643 166.478,121.977 165.5,121.5C 163.925,122.456 162.258,123.123 160.5,123.5C 161.401,121.273 163.067,120.273 165.5,120.5C 164.715,117.597 163.382,114.93 161.5,112.5C 162.348,110.591 162.682,108.591 162.5,106.5 Z"/></g>
<g><path style="opacity:1" fill="#2d261c" d="M 231.5,123.5 C 231.489,125.017 230.823,126.184 229.5,127C 224.387,128.785 219.22,128.951 214,127.5C 210.282,127.804 206.782,128.804 203.5,130.5C 210.764,135.879 218.764,137.879 227.5,136.5C 227.065,139.157 226.065,141.491 224.5,143.5C 223.486,142.235 221.986,141.569 220,141.5C 216.383,140.987 213.883,142.321 212.5,145.5C 210.228,144.559 208.228,143.226 206.5,141.5C 206.085,139.052 207.085,137.719 209.5,137.5C 211.628,138.054 213.128,139.387 214,141.5C 214.72,139.888 214.554,138.388 213.5,137C 210.833,136.333 208.167,136.333 205.5,137C 203.332,138.97 202.998,141.137 204.5,143.5C 205.306,144.728 206.306,145.728 207.5,146.5C 206.061,147.509 204.728,147.176 203.5,145.5C 202.808,146.025 202.308,146.692 202,147.5C 201.415,144.146 200.082,141.146 198,138.5C 195.816,141.866 194.483,145.533 194,149.5C 192.887,150.305 191.721,150.972 190.5,151.5C 191.455,149.254 192.122,146.921 192.5,144.5C 194.341,142.151 195.674,139.485 196.5,136.5C 198.556,132.112 201.889,129.112 206.5,127.5C 209.785,127.264 212.785,126.264 215.5,124.5C 221.104,127.393 226.438,127.06 231.5,123.5 Z"/></g>
<g><path style="opacity:1" fill="#ad8b55" d="M 206.5,141.5 C 205.167,141.5 204.5,142.167 204.5,143.5C 202.998,141.137 203.332,138.97 205.5,137C 208.167,136.333 210.833,136.333 213.5,137C 214.554,138.388 214.72,139.888 214,141.5C 213.128,139.387 211.628,138.054 209.5,137.5C 207.085,137.719 206.085,139.052 206.5,141.5 Z"/></g>
<g><path style="opacity:1" fill="#4b3812" d="M 57.5,137.5 C 58.4902,143.645 58.8235,149.978 58.5,156.5C 59.791,156.737 60.791,156.404 61.5,155.5C 62.0431,155.56 62.3764,155.893 62.5,156.5C 60.604,157.466 58.604,157.799 56.5,157.5C 57.4226,150.891 57.7559,144.224 57.5,137.5 Z"/></g>
<g><path style="opacity:1" fill="#d3a850" d="M 147.5,136.5 C 147.833,136.5 148.167,136.5 148.5,136.5C 148.177,143.022 148.51,149.355 149.5,155.5C 152.385,155.806 155.052,155.473 157.5,154.5C 158.338,154.842 158.672,155.508 158.5,156.5C 154.833,156.5 151.167,156.5 147.5,156.5C 147.5,149.833 147.5,143.167 147.5,136.5 Z"/></g>
<g><path style="opacity:1" fill="#2d281d" d="M 231.5,152.5 C 232.391,153.261 233.058,154.261 233.5,155.5C 234.365,156.583 235.365,156.749 236.5,156C 233.804,150.724 231.637,145.224 230,139.5C 229.623,138.058 228.79,137.058 227.5,136.5C 227.918,135.778 228.584,135.278 229.5,135C 234.373,134.249 235.706,134.416 233.5,135.5C 233.858,139.509 234.358,143.509 235,147.5C 236.908,148.079 238.575,148.079 240,147.5C 240.617,150.035 240.117,152.368 238.5,154.5C 240.335,155.428 240.668,156.594 239.5,158C 236.518,158.498 233.518,158.665 230.5,158.5C 230.833,156.5 231.167,154.5 231.5,152.5 Z"/></g>
<g><path style="opacity:1" fill="#342817" d="M 103.5,138.5 C 106.086,139.638 107.753,141.638 108.5,144.5C 105.652,145.067 102.985,144.4 100.5,142.5C 102.596,150.547 99.7626,155.88 92,158.5C 90.887,159.76 90.7203,160.927 91.5,162C 86.2128,161.825 80.8795,161.492 75.5,161C 73.9586,159.629 72.6253,158.129 71.5,156.5C 74.9582,158.808 78.7915,160.141 83,160.5C 86.3025,161.025 88.8025,159.858 90.5,157C 98.8856,154.394 101.552,148.894 98.5,140.5C 100.781,140.923 102.448,140.256 103.5,138.5 Z"/></g>
<g><path style="opacity:1" fill="#b0925e" d="M 147.5,136.5 C 147.5,143.167 147.5,149.833 147.5,156.5C 146.816,150.099 146.15,143.599 145.5,137C 146.094,136.536 146.761,136.369 147.5,136.5 Z"/></g>
<g><path style="opacity:1" fill="#272325" d="M 224.5,143.5 C 224.5,143.833 224.5,144.167 224.5,144.5C 222.199,145.06 219.866,145.56 217.5,146C 218.428,146.388 219.095,147.055 219.5,148C 218.148,149.964 217.314,152.131 217,154.5C 216.818,151.774 216.318,149.107 215.5,146.5C 214.583,145.873 213.583,145.539 212.5,145.5C 213.883,142.321 216.383,140.987 220,141.5C 221.986,141.569 223.486,142.235 224.5,143.5 Z"/></g>
<g><path style="opacity:1" fill="#81653a" d="M 246.5,136.5 C 247.239,136.369 247.906,136.536 248.5,137C 247.54,140.73 247.207,144.563 247.5,148.5C 247.5,148.833 247.5,149.167 247.5,149.5C 247.5,151.5 247.5,153.5 247.5,155.5C 246.51,149.355 246.177,143.022 246.5,136.5 Z"/></g>
<g><path style="opacity:1" fill="#3e2c10" d="M 149.5,136.5 C 149.167,136.5 148.833,136.5 148.5,136.5C 148.167,136.5 147.833,136.5 147.5,136.5C 146.761,136.369 146.094,136.536 145.5,137C 146.15,143.599 146.816,150.099 147.5,156.5C 151.167,156.5 154.833,156.5 158.5,156.5C 154.366,157.485 150.032,157.818 145.5,157.5C 145.582,150.142 145.248,142.809 144.5,135.5C 146.415,135.216 148.081,135.549 149.5,136.5 Z"/></g>
<g><path style="opacity:1" fill="#b28c53" d="M 148.5,136.5 C 148.833,136.5 149.167,136.5 149.5,136.5C 150.167,136.5 150.5,136.833 150.5,137.5C 149.51,143.31 149.177,149.31 149.5,155.5C 148.51,149.355 148.177,143.022 148.5,136.5 Z"/></g>
<g><path style="opacity:1" fill="#37210b" d="M 150.5,137.5 C 150.5,143.167 150.5,148.833 150.5,154.5C 152.833,154.5 155.167,154.5 157.5,154.5C 155.052,155.473 152.385,155.806 149.5,155.5C 149.177,149.31 149.51,143.31 150.5,137.5 Z"/></g>
<g><path style="opacity:1" fill="#2a2421" d="M 173.5,127.5 C 175.814,129.477 178.147,131.477 180.5,133.5C 182.853,131.477 185.186,129.477 187.5,127.5C 188.833,127.5 190.167,127.5 191.5,127.5C 190.833,130.5 190.167,133.5 189.5,136.5C 188.319,140.36 186.652,144.027 184.5,147.5C 183.441,149.555 181.775,150.889 179.5,151.5C 178.248,149.999 177.248,148.332 176.5,146.5C 175.14,143.38 174.307,140.047 174,136.5C 173.111,137.888 172.611,137.722 172.5,136C 173.868,133.432 173.534,131.099 171.5,129C 171.836,127.97 172.503,127.47 173.5,127.5 Z"/></g>
<g><path style="opacity:1" fill="#c18a42" d="M 198.5,123.5 C 197.167,123.5 195.833,123.5 194.5,123.5C 194.665,126.85 194.498,130.183 194,133.5C 192,135.5 192,137.5 194,139.5C 194.377,138.058 195.21,137.058 196.5,136.5C 195.674,139.485 194.341,142.151 192.5,144.5C 192.799,142.396 192.466,140.396 191.5,138.5C 190.052,140.667 188.885,143 188,145.5C 187.184,146.823 186.017,147.489 184.5,147.5C 186.652,144.027 188.319,140.36 189.5,136.5C 191.877,132.621 193.043,128.287 193,123.5C 194.855,121.017 196.689,121.017 198.5,123.5 Z"/></g>
<g><path style="opacity:1" fill="#ba9454" d="M 227.5,136.5 C 228.79,137.058 229.623,138.058 230,139.5C 231.637,145.224 233.804,150.724 236.5,156C 235.365,156.749 234.365,156.583 233.5,155.5C 233.058,154.261 232.391,153.261 231.5,152.5C 231.5,152.167 231.5,151.833 231.5,151.5C 231.586,150.504 231.252,149.671 230.5,149C 228.421,148.192 226.421,148.359 224.5,149.5C 223.692,151.925 222.692,154.258 221.5,156.5C 221.167,156 220.833,155.5 220.5,155C 222.263,151.644 223.596,148.144 224.5,144.5C 224.5,144.167 224.5,143.833 224.5,143.5C 226.065,141.491 227.065,139.157 227.5,136.5 Z"/></g>
<g><path style="opacity:1" fill="#3d2809" d="M 227.5,142.5 C 230.347,144.798 230.013,146.131 226.5,146.5C 226.433,145.041 226.766,143.708 227.5,142.5 Z"/></g>
<g><path style="opacity:1" fill="#2e261b" d="M 117.5,136.5 C 118.274,135.853 119.274,135.52 120.5,135.5C 124.02,136.12 127.353,137.12 130.5,138.5C 128.264,145.301 125.264,151.635 121.5,157.5C 120.427,156.749 120.26,155.749 121,154.5C 121.849,151.439 123.349,148.772 125.5,146.5C 124.167,145.167 122.833,143.833 121.5,142.5C 123.47,141.557 124.97,142.224 126,144.5C 126.468,138.939 124.468,137.605 120,140.5C 119.436,142.562 119.936,144.395 121.5,146C 120.344,148.155 118.844,149.989 117,151.5C 116.71,149.956 116.044,148.623 115,147.5C 114.503,150.146 114.336,152.813 114.5,155.5C 113.362,152.696 113.195,149.696 114,146.5C 116.501,142.969 119.334,139.802 122.5,137C 120.866,136.506 119.199,136.34 117.5,136.5 Z"/></g>
<g><path style="opacity:1" fill="#b28e51" d="M 136.5,146.5 C 137.134,149.937 138.467,153.104 140.5,156C 139.207,156.49 137.873,156.657 136.5,156.5C 135.833,153.833 135.167,151.167 134.5,148.5C 132.473,148.338 130.473,148.505 128.5,149C 127.286,151.351 126.452,153.851 126,156.5C 124.644,157.38 123.144,157.714 121.5,157.5C 125.264,151.635 128.264,145.301 130.5,138.5C 130.639,136.663 131.306,136.33 132.5,137.5C 133.857,140.601 135.19,143.601 136.5,146.5 Z"/></g>
<g><path style="opacity:1" fill="#3a2406" d="M 130.5,142.5 C 132.104,143.287 132.771,144.62 132.5,146.5C 131.448,146.649 130.448,146.483 129.5,146C 130.337,144.989 130.67,143.822 130.5,142.5 Z"/></g>
<g><path style="opacity:1" fill="#372a17" d="M 247.5,148.5 C 247.207,144.563 247.54,140.73 248.5,137C 247.906,136.536 247.239,136.369 246.5,136.5C 245.448,136.351 244.448,136.517 243.5,137C 244.833,143.333 244.833,149.667 243.5,156C 247.871,156.828 252.205,156.661 256.5,155.5C 253.781,155.346 250.781,155.346 247.5,155.5C 247.5,153.5 247.5,151.5 247.5,149.5C 249.104,150.287 249.771,151.62 249.5,153.5C 252.09,153.604 254.423,152.937 256.5,151.5C 259.196,153.44 260.529,152.773 260.5,149.5C 261.345,150.671 262.011,152.005 262.5,153.5C 260.955,154.23 260.122,155.563 260,157.5C 259.667,156.833 259.333,156.167 259,155.5C 258.097,156.701 256.931,157.535 255.5,158C 251.442,158.767 247.442,158.6 243.5,157.5C 242.503,150.197 242.169,142.863 242.5,135.5C 245.187,135.336 247.854,135.503 250.5,136C 250.175,140.538 249.175,144.705 247.5,148.5 Z"/></g>
<g><path style="opacity:1" fill="#caa562" d="M 246.5,136.5 C 246.177,143.022 246.51,149.355 247.5,155.5C 250.781,155.346 253.781,155.346 256.5,155.5C 252.205,156.661 247.871,156.828 243.5,156C 244.833,149.667 244.833,143.333 243.5,137C 244.448,136.517 245.448,136.351 246.5,136.5 Z"/></g>
<g><path style="opacity:1" fill="#7d5c31" d="M 110.5,147.5 C 111.479,150.625 111.813,153.958 111.5,157.5C 110.761,157.631 110.094,157.464 109.5,157C 110.451,153.943 110.784,150.777 110.5,147.5 Z"/></g>
<g><path style="opacity:1" fill="#c09d5b" d="M 117.5,136.5 C 119.199,136.34 120.866,136.506 122.5,137C 119.334,139.802 116.501,142.969 114,146.5C 113.195,149.696 113.362,152.696 114.5,155.5C 114.611,156.117 114.944,156.617 115.5,157C 114.207,157.49 112.873,157.657 111.5,157.5C 111.813,153.958 111.479,150.625 110.5,147.5C 110.573,145.973 109.906,144.973 108.5,144.5C 107.753,141.638 106.086,139.638 103.5,138.5C 103.389,137.883 103.056,137.383 102.5,137C 104.134,136.506 105.801,136.34 107.5,136.5C 108.665,139.693 110.331,142.693 112.5,145.5C 115.434,143.226 117.101,140.226 117.5,136.5 Z"/></g>
<g><path style="opacity:1" fill="#3b2d15" d="M 136.5,146.5 C 138.057,149.154 139.89,151.82 142,154.5C 142.49,155.793 142.657,157.127 142.5,158.5C 139.918,158.975 137.918,158.308 136.5,156.5C 137.873,156.657 139.207,156.49 140.5,156C 138.467,153.104 137.134,149.937 136.5,146.5 Z"/></g>
<g><path style="opacity:1" fill="#31281c" d="M 224.5,144.5 C 223.596,148.144 222.263,151.644 220.5,155C 220.833,155.5 221.167,156 221.5,156.5C 222.692,154.258 223.692,151.925 224.5,149.5C 226.421,148.359 228.421,148.192 230.5,149C 231.252,149.671 231.586,150.504 231.5,151.5C 230.064,149.681 228.397,149.348 226.5,150.5C 230.017,152.384 230.351,154.717 227.5,157.5C 226.167,157.833 224.833,158.167 223.5,158.5C 217.046,157.789 210.379,157.623 203.5,158C 202.234,157.691 201.067,157.191 200,156.5C 200.046,154.687 199.88,153.021 199.5,151.5C 200.688,149.738 202.355,148.738 204.5,148.5C 201.113,156.293 203.78,159.127 212.5,157C 216.445,153.169 216.445,149.336 212.5,145.5C 213.583,145.539 214.583,145.873 215.5,146.5C 216.318,149.107 216.818,151.774 217,154.5C 217.314,152.131 218.148,149.964 219.5,148C 219.095,147.055 218.428,146.388 217.5,146C 219.866,145.56 222.199,145.06 224.5,144.5 Z"/></g>
<g><path style="opacity:1" fill="#c59a51" d="M 206.5,141.5 C 208.228,143.226 210.228,144.559 212.5,145.5C 216.445,149.336 216.445,153.169 212.5,157C 203.78,159.127 201.113,156.293 204.5,148.5C 205.167,148.5 205.833,148.5 206.5,148.5C 203.068,154.219 204.568,156.552 211,155.5C 213.277,152.51 212.777,150.177 209.5,148.5C 209.167,147.5 208.5,146.833 207.5,146.5C 206.306,145.728 205.306,144.728 204.5,143.5C 204.5,142.167 205.167,141.5 206.5,141.5 Z"/></g>
<g><path style="opacity:1" fill="#b99453" d="M 273.5,157.5 C 269.071,158.113 265.405,156.78 262.5,153.5C 262.011,152.005 261.345,150.671 260.5,149.5C 260.5,147.5 260.5,145.5 260.5,143.5C 265.186,135.842 271.352,134.509 279,139.5C 283.209,147.402 281.376,153.402 273.5,157.5 Z"/></g>
<g><path style="opacity:1" fill="#262328" d="M 276.5,141.5 C 277.15,143.435 277.483,145.435 277.5,147.5C 275.712,147.785 274.045,147.452 272.5,146.5C 273.246,145.264 273.579,143.93 273.5,142.5C 272.5,142.5 271.5,142.5 270.5,142.5C 270.5,143.5 270.5,144.5 270.5,145.5C 268.097,145.448 265.764,145.781 263.5,146.5C 263.5,145.5 263.5,144.5 263.5,143.5C 264.822,143.33 265.989,143.663 267,144.5C 267.202,142.744 267.702,141.078 268.5,139.5C 269.167,140.167 269.833,140.833 270.5,141.5C 272.482,140.377 274.482,140.377 276.5,141.5 Z"/></g>
<g><path style="opacity:1" fill="#302718" d="M 276.5,141.5 C 279.886,144.629 280.386,148.295 278,152.5C 276.989,153.337 275.822,153.67 274.5,153.5C 268.124,155.83 264.458,153.497 263.5,146.5C 265.764,145.781 268.097,145.448 270.5,145.5C 270.5,144.5 270.5,143.5 270.5,142.5C 271.5,142.5 272.5,142.5 273.5,142.5C 273.579,143.93 273.246,145.264 272.5,146.5C 274.045,147.452 275.712,147.785 277.5,147.5C 277.483,145.435 277.15,143.435 276.5,141.5 Z"/></g>
<g><path style="opacity:1" fill="#28232c" d="M 274.5,153.5 C 267.469,153.481 267.136,152.981 273.5,152C 271.862,150.199 270.028,150.032 268,151.5C 264.621,149.992 264.787,148.659 268.5,147.5C 271.084,148.393 273.751,148.726 276.5,148.5C 276.635,150.554 275.968,152.221 274.5,153.5 Z"/></g>
<g><path style="opacity:1" fill="#332a13" d="M 276.5,141.5 C 274.482,140.377 272.482,140.377 270.5,141.5C 269.833,140.833 269.167,140.167 268.5,139.5C 267.702,141.078 267.202,142.744 267,144.5C 265.989,143.663 264.822,143.33 263.5,143.5C 265.21,138.817 268.543,137.317 273.5,139C 274.942,139.377 275.942,140.21 276.5,141.5 Z"/></g>
<g><path style="opacity:1" fill="#b79558" d="M 57.5,137.5 C 60.6399,136.359 63.9733,136.192 67.5,137C 71.5984,140.649 71.2651,143.982 66.5,147C 67.7101,148.039 68.7101,149.206 69.5,150.5C 71.9485,153.556 74.9485,155.889 78.5,157.5C 81.374,159.707 84.374,159.873 87.5,158C 84.6945,156.618 82.3612,154.784 80.5,152.5C 77.4839,141.183 81.8172,135.85 93.5,136.5C 95.1667,137.833 96.8333,139.167 98.5,140.5C 101.552,148.894 98.8856,154.394 90.5,157C 88.8025,159.858 86.3025,161.025 83,160.5C 78.7915,160.141 74.9582,158.808 71.5,156.5C 68.5222,153.187 65.5222,149.853 62.5,146.5C 66.1488,145.474 67.3154,143.141 66,139.5C 65.6174,138.944 65.1174,138.611 64.5,138.5C 63.4324,137.566 62.099,137.232 60.5,137.5C 60.1771,143.69 60.5104,149.69 61.5,155.5C 60.791,156.404 59.791,156.737 58.5,156.5C 58.8235,149.978 58.4902,143.645 57.5,137.5 Z"/></g>
<g><path style="opacity:1" fill="#262425" d="M 94.5,141.5 C 94.8333,141.5 95.1667,141.5 95.5,141.5C 95.4595,144.881 95.7929,148.214 96.5,151.5C 89.9729,155.364 85.6396,153.697 83.5,146.5C 85.3845,145.803 85.7178,144.803 84.5,143.5C 86.8333,142.167 89.1667,142.167 91.5,143.5C 89.9539,144.684 88.2873,145.684 86.5,146.5C 88.1667,147.833 89.8333,147.833 91.5,146.5C 92.7934,144.897 93.7934,143.231 94.5,141.5 Z"/></g>
<g><path style="opacity:1" fill="#8c7142" d="M 64.5,138.5 C 63.5,138.5 62.5,138.5 61.5,138.5C 61.5,144.167 61.5,149.833 61.5,155.5C 60.5104,149.69 60.1771,143.69 60.5,137.5C 62.099,137.232 63.4324,137.566 64.5,138.5 Z"/></g>
<g><path style="opacity:1" fill="#3f2c11" d="M 95.5,141.5 C 96.9723,143.117 97.639,145.117 97.5,147.5C 97.4892,149.045 97.1558,150.378 96.5,151.5C 95.7929,148.214 95.4595,144.881 95.5,141.5 Z"/></g>
<g><path style="opacity:1" fill="#2c2618" d="M 94.5,141.5 C 93.7934,143.231 92.7934,144.897 91.5,146.5C 89.8333,147.833 88.1667,147.833 86.5,146.5C 88.2873,145.684 89.9539,144.684 91.5,143.5C 89.1667,142.167 86.8333,142.167 84.5,143.5C 85.7178,144.803 85.3845,145.803 83.5,146.5C 85.6396,153.697 89.9729,155.364 96.5,151.5C 96.0472,152.458 95.3805,153.292 94.5,154C 84.8359,156 80.6692,152.167 82,142.5C 85.9845,137.661 90.1512,137.328 94.5,141.5 Z"/></g>
<g><path style="opacity:1" fill="#39270c" d="M 69.5,150.5 C 73.377,151.711 76.377,154.044 78.5,157.5C 74.9485,155.889 71.9485,153.556 69.5,150.5 Z"/></g>
<g><path style="opacity:1" fill="#3b2813" d="M 190.5,151.5 C 190.807,161.648 192.14,171.648 194.5,181.5C 191.711,173.313 189.711,164.813 188.5,156C 188.525,154.124 189.191,152.624 190.5,151.5 Z"/></g>
<g><path style="opacity:1" fill="#2d2a0d" d="M 206.5,148.5 C 207.5,148.5 208.5,148.5 209.5,148.5C 212.777,150.177 213.277,152.51 211,155.5C 204.568,156.552 203.068,154.219 206.5,148.5 Z"/></g>
<g><path style="opacity:1" fill="#26222d" d="M 208.5,150.5 C 212.253,151.486 212.253,152.819 208.5,154.5C 204.501,153.168 204.501,151.835 208.5,150.5 Z"/></g>
<g><path style="opacity:1" fill="#2c271e" d="M 273.5,157.5 C 281.376,153.402 283.209,147.402 279,139.5C 271.352,134.509 265.186,135.842 260.5,143.5C 260.383,141.516 261.05,139.85 262.5,138.5C 260.994,137.253 259.494,137.253 258,138.5C 257.535,137.069 256.701,135.903 255.5,135C 269.163,134.5 282.829,134.333 296.5,134.5C 296.112,136.685 295.112,138.518 293.5,140C 294.414,141.406 295.08,142.906 295.5,144.5C 292.806,142.473 290.473,140.139 288.5,137.5C 288.44,136.957 288.107,136.624 287.5,136.5C 286.504,142.463 286.171,148.463 286.5,154.5C 287.053,156.552 288.053,156.885 289.5,155.5C 289.183,151.298 289.517,147.298 290.5,143.5C 294.801,147.972 298.968,152.639 303,157.5C 303.186,150.586 303.686,143.753 304.5,137C 303.207,136.51 301.873,136.343 300.5,136.5C 301.545,135.205 302.545,133.872 303.5,132.5C 304.938,132.719 306.271,133.219 307.5,134C 306.248,136.041 305.581,138.375 305.5,141C 304.895,146.821 304.562,152.654 304.5,158.5C 300.974,158.061 297.307,157.894 293.5,158C 295.559,156.815 295.726,155.648 294,154.5C 290.951,157.966 287.118,159.299 282.5,158.5C 282.664,155.813 282.497,153.146 282,150.5C 280.82,154.847 277.987,157.18 273.5,157.5 Z"/></g>
<g><path style="opacity:1" fill="#765d2c" d="M 288.5,137.5 C 287.833,143.167 287.167,148.833 286.5,154.5C 286.171,148.463 286.504,142.463 287.5,136.5C 288.107,136.624 288.44,136.957 288.5,137.5 Z"/></g>
<g><path style="opacity:1" fill="#be9956" d="M 300.5,136.5 C 301.873,136.343 303.207,136.51 304.5,137C 303.686,143.753 303.186,150.586 303,157.5C 298.968,152.639 294.801,147.972 290.5,143.5C 290.217,142.711 289.717,142.044 289,141.5C 288.185,146.352 288.352,151.019 289.5,155.5C 288.053,156.885 287.053,156.552 286.5,154.5C 287.167,148.833 287.833,143.167 288.5,137.5C 290.473,140.139 292.806,142.473 295.5,144.5C 297.5,146.671 299.334,149.004 301,151.5C 301.778,146.416 301.611,141.416 300.5,136.5 Z"/></g>
<g><path style="opacity:1" fill="#583d15" d="M 290.5,143.5 C 289.517,147.298 289.183,151.298 289.5,155.5C 288.352,151.019 288.185,146.352 289,141.5C 289.717,142.044 290.217,142.711 290.5,143.5 Z"/></g>
<g><path style="opacity:1" fill="#2d2418" d="M 64.5,138.5 C 65.1174,138.611 65.6174,138.944 66,139.5C 67.3154,143.141 66.1488,145.474 62.5,146.5C 65.5222,149.853 68.5222,153.187 71.5,156.5C 69.264,155.611 67.264,154.278 65.5,152.5C 64.3338,154.365 64.6671,156.032 66.5,157.5C 63.0202,158.806 59.6868,158.806 56.5,157.5C 58.604,157.799 60.604,157.466 62.5,156.5C 62.3764,155.893 62.0431,155.56 61.5,155.5C 61.5,149.833 61.5,144.167 61.5,138.5C 62.5,138.5 63.5,138.5 64.5,138.5 Z"/></g>
<g><path style="opacity:1" fill="#2c261b" d="M 167.5,144.5 C 169.535,148.081 171.202,151.914 172.5,156C 171.433,161.168 170.433,166.334 169.5,171.5C 169.5,172.167 169.5,172.833 169.5,173.5C 168.232,175.905 167.565,178.572 167.5,181.5C 166.518,184.763 165.851,188.097 165.5,191.5C 164.833,192.5 164.167,193.5 163.5,194.5C 163.636,189.055 162.969,183.722 161.5,178.5C 162.407,175.579 162.74,172.579 162.5,169.5C 162.833,169.5 163.167,169.5 163.5,169.5C 164.404,168.791 164.737,167.791 164.5,166.5C 138.5,166.5 112.5,166.5 86.5,166.5C 112.663,165.668 138.997,165.168 165.5,165C 170.459,163.436 170.793,161.103 166.5,158C 168.108,157.342 169.275,157.842 170,159.5C 171.379,155.525 170.213,152.691 166.5,151C 167.308,150.692 167.975,150.192 168.5,149.5C 167.691,147.929 167.357,146.262 167.5,144.5 Z"/></g>
<g><path style="opacity:1" fill="#4d3317" d="M 46.5,167.5 C 59.6562,166.504 72.9895,166.171 86.5,166.5C 112.5,166.5 138.5,166.5 164.5,166.5C 164.737,167.791 164.404,168.791 163.5,169.5C 124.848,167.506 85.8476,166.839 46.5,167.5 Z"/></g>
<g><path style="opacity:1" fill="#2c251a" d="M 314.5,169.5 C 314.5,168.833 314.5,168.167 314.5,167.5C 275.337,166.501 236.004,166.168 196.5,166.5C 196.263,167.791 196.596,168.791 197.5,169.5C 197.833,169.5 198.167,169.5 198.5,169.5C 198.665,173.182 198.499,176.848 198,180.5C 195.9,175.728 195.066,170.894 195.5,166C 235.5,165.333 275.5,165.333 315.5,166C 316.985,167.756 316.652,168.923 314.5,169.5 Z"/></g>
<g><path style="opacity:1" fill="#4d3317" d="M 314.5,167.5 C 275.152,166.839 236.152,167.506 197.5,169.5C 196.596,168.791 196.263,167.791 196.5,166.5C 236.004,166.168 275.337,166.501 314.5,167.5 Z"/></g>
<g><path style="opacity:1" fill="#926c44" d="M 46.5,167.5 C 85.8476,166.839 124.848,167.506 163.5,169.5C 163.167,169.5 162.833,169.5 162.5,169.5C 156.833,169.5 151.167,169.5 145.5,169.5C 112.833,169.5 80.1667,169.5 47.5,169.5C 46.6618,169.158 46.3284,168.492 46.5,167.5 Z"/></g>
<g><path style="opacity:1" fill="#d99e3e" d="M 192.5,144.5 C 190.864,145.749 189.697,147.416 189,149.5C 188.059,152.815 187.226,156.148 186.5,159.5C 185.675,160.386 184.675,160.719 183.5,160.5C 183.5,159.5 183.5,158.5 183.5,157.5C 181.5,157.5 179.5,157.5 177.5,157.5C 177.531,153.724 176.864,153.557 175.5,157C 176.85,159.21 177.85,161.544 178.5,164C 181.8,163.954 185.134,163.788 188.5,163.5C 188.911,166.553 189.577,169.553 190.5,172.5C 188.993,175.188 187.659,177.855 186.5,180.5C 188.034,183.773 189.368,187.106 190.5,190.5C 189.687,191.653 188.687,191.653 187.5,190.5C 185.871,186.246 184.538,181.913 183.5,177.5C 182.572,175.401 181.072,173.734 179,172.5C 177.402,169.702 176.235,166.702 175.5,163.5C 174.482,164.193 173.482,164.859 172.5,165.5C 173.616,159.144 173.782,152.811 173,146.5C 174.159,149.493 176.325,151.16 179.5,151.5C 181.775,150.889 183.441,149.555 184.5,147.5C 186.017,147.489 187.184,146.823 188,145.5C 188.885,143 190.052,140.667 191.5,138.5C 192.466,140.396 192.799,142.396 192.5,144.5 Z"/></g>
<g><path style="opacity:1" fill="#916d45" d="M 314.5,167.5 C 314.5,168.167 314.5,168.833 314.5,169.5C 314.167,169.5 313.833,169.5 313.5,169.5C 276.167,169.5 238.833,169.5 201.5,169.5C 200.5,169.5 199.5,169.5 198.5,169.5C 198.167,169.5 197.833,169.5 197.5,169.5C 236.152,167.506 275.152,166.839 314.5,167.5 Z"/></g>
<g><path style="opacity:1" fill="#2e2719" d="M 201.5,169.5 C 238.833,169.5 276.167,169.5 313.5,169.5C 291.362,170.955 269.028,172.288 246.5,173.5C 246.5,174.5 246.5,175.5 246.5,176.5C 248.527,176.338 250.527,176.505 252.5,177C 253.167,179 254.5,180.333 256.5,181C 255.207,181.49 253.873,181.657 252.5,181.5C 252.586,180.504 252.252,179.671 251.5,179C 249.5,178.333 247.5,178.333 245.5,179C 244.825,182.013 244.825,185.18 245.5,188.5C 244.5,188.5 243.5,188.5 242.5,188.5C 242.719,189.675 242.386,190.675 241.5,191.5C 239.556,190.199 237.556,189.199 235.5,188.5C 237.604,188.799 239.604,188.466 241.5,187.5C 239.74,184.788 239.073,181.788 239.5,178.5C 241.167,178.5 242.833,178.5 244.5,178.5C 244.5,175.833 244.5,173.167 244.5,170.5C 238.5,170.5 232.5,170.5 226.5,170.5C 226.762,171.978 226.429,173.311 225.5,174.5C 223.465,175.041 221.465,175.708 219.5,176.5C 222.977,177.167 226.311,177.834 229.5,178.5C 224.016,178.438 222.183,181.105 224,186.5C 226.242,188.715 228.742,189.048 231.5,187.5C 231.586,188.496 231.252,189.329 230.5,190C 227.199,190.997 223.866,191.33 220.5,191C 219.748,190.329 219.414,189.496 219.5,188.5C 220.043,188.44 220.376,188.107 220.5,187.5C 219.624,186.749 218.624,186.249 217.5,186C 220.041,184.152 221.041,181.652 220.5,178.5C 218.076,178.192 215.743,178.526 213.5,179.5C 214.689,180.429 216.022,180.762 217.5,180.5C 217.771,182.38 217.104,183.713 215.5,184.5C 215.5,183.5 215.5,182.5 215.5,181.5C 214.5,181.5 213.5,181.5 212.5,181.5C 212.649,180.448 212.483,179.448 212,178.5C 211.667,180.167 211.333,181.833 211,183.5C 209.887,181.408 209.721,179.075 210.5,176.5C 212.167,176.5 213.833,176.5 215.5,176.5C 215.5,175.5 215.5,174.5 215.5,173.5C 218.167,173.5 220.833,173.5 223.5,173.5C 223.5,172.5 223.5,171.5 223.5,170.5C 216.5,170.5 209.5,170.5 202.5,170.5C 201.955,174.172 201.622,173.838 201.5,169.5 Z"/></g>
<g><path style="opacity:1" fill="#e0b34c" d="M 183.5,177.5 C 182.833,177.5 182.167,177.5 181.5,177.5C 181.158,176.662 180.492,176.328 179.5,176.5C 178.094,178.474 176.594,180.474 175,182.5C 174.506,180.866 174.34,179.199 174.5,177.5C 172.833,177.5 171.167,177.5 169.5,177.5C 169.5,176.167 169.5,174.833 169.5,173.5C 169.5,172.833 169.5,172.167 169.5,171.5C 170.15,171.804 170.817,172.137 171.5,172.5C 172.474,170.257 172.808,167.924 172.5,165.5C 173.482,164.859 174.482,164.193 175.5,163.5C 176.235,166.702 177.402,169.702 179,172.5C 181.072,173.734 182.572,175.401 183.5,177.5 Z"/></g>
<g><path style="opacity:1" fill="#282422" d="M 239.5,178.5 C 237.219,178.077 235.552,178.744 234.5,180.5C 235.626,181.858 235.626,183.192 234.5,184.5C 233.85,182.816 232.85,181.483 231.5,180.5C 231.167,179.5 230.5,178.833 229.5,178.5C 226.311,177.834 222.977,177.167 219.5,176.5C 221.465,175.708 223.465,175.041 225.5,174.5C 226.429,173.311 226.762,171.978 226.5,170.5C 232.5,170.5 238.5,170.5 244.5,170.5C 244.5,173.167 244.5,175.833 244.5,178.5C 242.833,178.5 241.167,178.5 239.5,178.5 Z"/></g>
<g><path style="opacity:1" fill="#302716" d="M 47.5,169.5 C 80.1667,169.5 112.833,169.5 145.5,169.5C 143.721,171.344 141.388,172.01 138.5,171.5C 138.167,173.5 137.833,175.5 137.5,177.5C 141.555,177.176 145.555,177.509 149.5,178.5C 150.063,179.939 150.397,181.439 150.5,183C 150.693,185.008 150.026,186.508 148.5,187.5C 150.7,179.699 147.7,176.699 139.5,178.5C 139.5,181.833 139.5,185.167 139.5,188.5C 138.532,186.393 138.198,184.059 138.5,181.5C 137.5,181.5 136.5,181.5 135.5,181.5C 135.802,184.059 135.468,186.393 134.5,188.5C 134.5,185.833 134.5,183.167 134.5,180.5C 135.675,180.719 136.675,180.386 137.5,179.5C 134.5,178.167 131.5,178.167 128.5,179.5C 129.325,180.386 130.325,180.719 131.5,180.5C 131.5,183.167 131.5,185.833 131.5,188.5C 130.532,186.393 130.198,184.059 130.5,181.5C 128.801,181.527 127.467,182.194 126.5,183.5C 124.805,182.989 123.139,182.322 121.5,181.5C 123.332,180.943 124.665,179.943 125.5,178.5C 128.885,177.394 132.218,176.227 135.5,175C 133.068,173.913 133.402,173.413 136.5,173.5C 136.5,172.5 136.5,171.5 136.5,170.5C 116.166,170.732 95.8328,171.066 75.5,171.5C 65.8086,171.498 56.4752,170.832 47.5,169.5 Z"/></g>
<g><path style="opacity:1" fill="#d19b44" d="M 192.5,144.5 C 192.122,146.921 191.455,149.254 190.5,151.5C 189.191,152.624 188.525,154.124 188.5,156C 189.711,164.813 191.711,173.313 194.5,181.5C 195.007,185.86 195.673,190.193 196.5,194.5C 196.924,198.703 196.424,202.703 195,206.5C 193.318,205.135 193.151,203.635 194.5,202C 193.747,200.513 192.914,200.346 192,201.5C 190.627,199.305 190.294,196.971 191,194.5C 191.906,197.121 192.406,196.954 192.5,194C 192.613,192.301 191.947,191.134 190.5,190.5C 189.368,187.106 188.034,183.773 186.5,180.5C 187.659,177.855 188.993,175.188 190.5,172.5C 189.577,169.553 188.911,166.553 188.5,163.5C 185.134,163.788 181.8,163.954 178.5,164C 177.85,161.544 176.85,159.21 175.5,157C 176.864,153.557 177.531,153.724 177.5,157.5C 179.5,157.5 181.5,157.5 183.5,157.5C 183.5,158.5 183.5,159.5 183.5,160.5C 184.675,160.719 185.675,160.386 186.5,159.5C 187.226,156.148 188.059,152.815 189,149.5C 189.697,147.416 190.864,145.749 192.5,144.5 Z"/></g>
<g><path style="opacity:1" fill="#442b15" d="M 179.5,158.5 C 182.956,159.536 183.29,161.203 180.5,163.5C 178.296,162.218 177.962,160.551 179.5,158.5 Z"/></g>
<g><path style="opacity:1" fill="#bd9855" d="M 119.5,178.5 C 121.5,178.5 123.5,178.5 125.5,178.5C 124.665,179.943 123.332,180.943 121.5,181.5C 123.139,182.322 124.805,182.989 126.5,183.5C 126.714,185.144 126.38,186.644 125.5,188C 123.19,188.497 120.857,188.663 118.5,188.5C 119.678,187.001 121.345,186.001 123.5,185.5C 119.246,184.65 117.913,182.316 119.5,178.5 Z"/></g>
<g><path style="opacity:1" fill="#3e2c0e" d="M 179.5,176.5 C 180.492,176.328 181.158,176.662 181.5,177.5C 181.5,178.5 181.5,179.5 181.5,180.5C 179.508,183.415 177.508,186.415 175.5,189.5C 177.121,185.257 178.454,180.924 179.5,176.5 Z"/></g>
<g><path style="opacity:1" fill="#b69251" d="M 252.5,181.5 C 252.228,183.314 252.061,185.314 252,187.5C 249.959,188.423 247.792,188.756 245.5,188.5C 244.825,185.18 244.825,182.013 245.5,179C 247.5,178.333 249.5,178.333 251.5,179C 252.252,179.671 252.586,180.504 252.5,181.5 Z"/></g>
<g><path style="opacity:1" fill="#342315" d="M 115.5,178.5 C 116.833,178.5 118.167,178.5 119.5,178.5C 117.913,182.316 119.246,184.65 123.5,185.5C 121.345,186.001 119.678,187.001 118.5,188.5C 117.5,188.5 116.5,188.5 115.5,188.5C 114.167,187.167 112.833,185.833 111.5,184.5C 112.833,184.5 114.167,184.5 115.5,184.5C 115.5,183.5 115.5,182.5 115.5,181.5C 114.167,181.5 112.833,181.5 111.5,181.5C 113.219,180.978 114.552,179.978 115.5,178.5 Z"/></g>
<g><path style="opacity:1" fill="#be9556" d="M 134.5,188.5 C 133.5,188.5 132.5,188.5 131.5,188.5C 131.5,185.833 131.5,183.167 131.5,180.5C 130.325,180.719 129.325,180.386 128.5,179.5C 131.5,178.167 134.5,178.167 137.5,179.5C 136.675,180.386 135.675,180.719 134.5,180.5C 134.5,183.167 134.5,185.833 134.5,188.5 Z"/></g>
<g><path style="opacity:1" fill="#d9b85d" d="M 169.5,173.5 C 169.5,174.833 169.5,176.167 169.5,177.5C 171.167,177.5 172.833,177.5 174.5,177.5C 174.34,179.199 174.506,180.866 175,182.5C 176.594,180.474 178.094,178.474 179.5,176.5C 178.454,180.924 177.121,185.257 175.5,189.5C 175.5,190.167 175.5,190.833 175.5,191.5C 174.833,192.167 174.167,192.833 173.5,193.5C 174.221,190.183 174.388,186.849 174,183.5C 172.207,181.037 170.041,180.37 167.5,181.5C 167.565,178.572 168.232,175.905 169.5,173.5 Z"/></g>
<g><path style="opacity:1" fill="#c59b54" d="M 115.5,178.5 C 114.552,179.978 113.219,180.978 111.5,181.5C 112.263,182.268 113.263,182.768 114.5,183C 113.263,183.232 112.263,183.732 111.5,184.5C 112.833,185.833 114.167,187.167 115.5,188.5C 113.167,188.5 110.833,188.5 108.5,188.5C 108.5,185.167 108.5,181.833 108.5,178.5C 110.833,178.5 113.167,178.5 115.5,178.5 Z"/></g>
<g><path style="opacity:1" fill="#8c693e" d="M 111.5,181.5 C 112.833,181.5 114.167,181.5 115.5,181.5C 115.5,182.5 115.5,183.5 115.5,184.5C 114.167,184.5 112.833,184.5 111.5,184.5C 112.263,183.732 113.263,183.232 114.5,183C 113.263,182.768 112.263,182.268 111.5,181.5 Z"/></g>
<g><path style="opacity:1" fill="#be9958" d="M 219.5,188.5 C 217.5,188.5 215.5,188.5 213.5,188.5C 213.527,186.801 214.194,185.467 215.5,184.5C 217.104,183.713 217.771,182.38 217.5,180.5C 216.022,180.762 214.689,180.429 213.5,179.5C 215.743,178.526 218.076,178.192 220.5,178.5C 221.041,181.652 220.041,184.152 217.5,186C 218.624,186.249 219.624,186.749 220.5,187.5C 220.376,188.107 220.043,188.44 219.5,188.5 Z"/></g>
<g><path style="opacity:1" fill="#bf9b55" d="M 239.5,178.5 C 239.073,181.788 239.74,184.788 241.5,187.5C 239.604,188.466 237.604,188.799 235.5,188.5C 235.167,188.5 234.833,188.5 234.5,188.5C 234.821,186.952 235.821,186.285 237.5,186.5C 237.5,184.5 237.5,182.5 237.5,180.5C 236.5,180.5 235.5,180.5 234.5,180.5C 235.552,178.744 237.219,178.077 239.5,178.5 Z"/></g>
<g><path style="opacity:1" fill="#bc9350" d="M 229.5,178.5 C 230.5,178.833 231.167,179.5 231.5,180.5C 231.5,182.833 231.5,185.167 231.5,187.5C 228.742,189.048 226.242,188.715 224,186.5C 222.183,181.105 224.016,178.438 229.5,178.5 Z"/></g>
<g><path style="opacity:1" fill="#2e2313" d="M 226.5,180.5 C 227.693,180.97 228.36,181.97 228.5,183.5C 228.167,184.5 227.833,185.5 227.5,186.5C 226.534,184.604 226.201,182.604 226.5,180.5 Z"/></g>
<g><path style="opacity:1" fill="#3b2d18" d="M 231.5,180.5 C 232.85,181.483 233.85,182.816 234.5,184.5C 235.626,183.192 235.626,181.858 234.5,180.5C 235.5,180.5 236.5,180.5 237.5,180.5C 237.5,182.5 237.5,184.5 237.5,186.5C 235.821,186.285 234.821,186.952 234.5,188.5C 233.778,188.082 233.278,187.416 233,186.5C 232.617,187.056 232.117,187.389 231.5,187.5C 231.5,185.167 231.5,182.833 231.5,180.5 Z"/></g>
<g><path style="opacity:1" fill="#350b00" d="M 247.5,184.5 C 249.337,184.639 249.67,185.306 248.5,186.5C 247.702,186.043 247.369,185.376 247.5,184.5 Z"/></g>
<g><path style="opacity:1" fill="#c09754" d="M 148.5,187.5 C 145.57,188.299 142.57,188.632 139.5,188.5C 139.5,185.167 139.5,181.833 139.5,178.5C 147.7,176.699 150.7,179.699 148.5,187.5 Z"/></g>
<g><path style="opacity:1" fill="#372812" d="M 142.5,180.5 C 146.35,180.701 147.35,182.534 145.5,186C 144.552,186.483 143.552,186.649 142.5,186.5C 142.5,184.5 142.5,182.5 142.5,180.5 Z"/></g>
<g><path style="opacity:1" fill="#edd066" d="M 173.5,193.5 C 172.892,196.327 171.892,198.993 170.5,201.5C 168.55,201.299 166.55,201.299 164.5,201.5C 165.417,198.242 165.751,194.909 165.5,191.5C 165.851,188.097 166.518,184.763 167.5,181.5C 170.041,180.37 172.207,181.037 174,183.5C 174.388,186.849 174.221,190.183 173.5,193.5 Z"/></g>
<g><path style="opacity:1" fill="#322816" d="M 175.5,191.5 C 174.161,196.054 172.994,200.721 172,205.5C 170.811,207.233 169.644,208.9 168.5,210.5C 168.873,207.426 169.539,204.426 170.5,201.5C 171.892,198.993 172.892,196.327 173.5,193.5C 174.167,192.833 174.833,192.167 175.5,191.5 Z"/></g>
<g><path style="opacity:1" fill="#d6bb66" d="M 165.5,191.5 C 165.751,194.909 165.417,198.242 164.5,201.5C 166.55,201.299 168.55,201.299 170.5,201.5C 169.539,204.426 168.873,207.426 168.5,210.5C 165.738,215.105 163.738,220.105 162.5,225.5C 161.833,226.5 161.167,227.5 160.5,228.5C 162.503,222.316 164.003,215.983 165,209.5C 165.333,209.833 165.667,210.167 166,210.5C 168.044,207.901 167.711,205.901 165,204.5C 164.667,204.833 164.333,205.167 164,205.5C 162.729,210.118 161.562,214.785 160.5,219.5C 160.253,220.713 159.586,221.38 158.5,221.5C 159.265,218.904 159.599,216.237 159.5,213.5C 161.579,207.442 162.913,201.109 163.5,194.5C 164.167,193.5 164.833,192.5 165.5,191.5 Z"/></g>
<g><path style="opacity:1" fill="#d1a851" d="M 181.5,177.5 C 182.167,177.5 182.833,177.5 183.5,177.5C 184.538,181.913 185.871,186.246 187.5,190.5C 188.687,191.653 189.687,191.653 190.5,190.5C 191.947,191.134 192.613,192.301 192.5,194C 192.406,196.954 191.906,197.121 191,194.5C 190.294,196.971 190.627,199.305 192,201.5C 192.914,200.346 193.747,200.513 194.5,202C 193.151,203.635 193.318,205.135 195,206.5C 196.424,202.703 196.924,198.703 196.5,194.5C 197.176,198.479 198.176,202.479 199.5,206.5C 200.882,215.429 202.882,224.095 205.5,232.5C 205.664,235.187 205.497,237.854 205,240.5C 204.667,240.167 204.333,239.833 204,239.5C 196.956,219.517 189.456,199.85 181.5,180.5C 181.5,179.5 181.5,178.5 181.5,177.5 Z"/></g>
<g><path style="opacity:1" fill="#e2ba54" d="M 160.5,228.5 C 160.5,229.167 160.5,229.833 160.5,230.5C 158.692,229.082 158.025,227.082 158.5,224.5C 158.5,223.5 158.5,222.5 158.5,221.5C 159.586,221.38 160.253,220.713 160.5,219.5C 161.562,214.785 162.729,210.118 164,205.5C 164.333,205.167 164.667,204.833 165,204.5C 167.711,205.901 168.044,207.901 166,210.5C 165.667,210.167 165.333,209.833 165,209.5C 164.003,215.983 162.503,222.316 160.5,228.5 Z"/></g>
<g><path style="opacity:1" fill="#2b2617" d="M 205.5,232.5 C 202.882,224.095 200.882,215.429 199.5,206.5C 200.117,206.611 200.617,206.944 201,207.5C 201.333,205.833 201.667,204.167 202,202.5C 203.97,212.313 205.137,222.313 205.5,232.5 Z"/></g>
<g><path style="opacity:1" fill="#be9d5c" d="M 158.5,224.5 C 158.025,227.082 158.692,229.082 160.5,230.5C 159.171,233.48 157.838,236.48 156.5,239.5C 155.547,234.226 156.214,229.226 158.5,224.5 Z"/></g>
<g><path style="opacity:1" fill="#31271a" d="M 159.5,213.5 C 159.599,216.237 159.265,218.904 158.5,221.5C 158.5,222.5 158.5,223.5 158.5,224.5C 156.214,229.226 155.547,234.226 156.5,239.5C 157.838,236.48 159.171,233.48 160.5,230.5C 160.5,229.833 160.5,229.167 160.5,228.5C 161.167,227.5 161.833,226.5 162.5,225.5C 161.237,230.795 160.07,236.128 159,241.5C 156.224,243.14 154.224,242.473 153,239.5C 154.111,230.525 156.278,221.859 159.5,213.5 Z"/></g>
</svg>
